<svg width="28" height="28" viewBox="0 0 28 28" fill="none" xmlns="http://www.w3.org/2000/svg">
<path d="M14 0C6.286 0 0 6.272 0 14C0 21.714 6.286 28 14 28C21.728 28 28 21.714 28 14C28 6.40298 21.9388 0.213028 14.3917 0.00538189L14 0Z" fill="white"/>
<path opacity="0.5" d="M16.7579 18.1165C17.1779 18.5225 17.1779 19.1805 16.7719 19.6005C16.5619 19.8105 16.2959 19.9085 16.0159 19.9085C15.7499 19.9085 15.4839 19.8105 15.2879 19.6005L10.4019 14.7425C10.2059 14.5465 10.0939 14.2805 10.0939 14.0005C10.0939 13.7205 10.2059 13.4545 10.4019 13.2585L15.2879 8.40054C15.6939 7.98054 16.3519 7.98054 16.7719 8.40054C17.1779 8.80654 17.1779 9.47854 16.7579 9.88454L12.6279 14.0005L16.7579 18.1165Z" fill="#030229"/>
</svg>
