<svg width="14" height="13" viewBox="0 0 14 13" fill="none" xmlns="http://www.w3.org/2000/svg">
<path fill-rule="evenodd" clip-rule="evenodd" d="M4.85345 3.10059C4.85345 4.38393 3.79547 5.4241 2.48922 5.4241C1.18374 5.4241 0.125 4.38393 0.125 3.10059C0.125 1.81801 1.18374 0.777832 2.48922 0.777832C3.79547 0.777832 4.85345 1.81801 4.85345 3.10059ZM12.8392 2.08301C13.4106 2.08301 13.8751 2.5393 13.8751 3.10067C13.8751 3.66278 13.4106 4.11908 12.8392 4.11908H8.31857C7.74642 4.11908 7.28198 3.66278 7.28198 3.10067C7.28198 2.5393 7.74642 2.08301 8.31857 2.08301H12.8392ZM1.16159 9.68646H5.68226C6.25441 9.68646 6.71885 10.1428 6.71885 10.7049C6.71885 11.2662 6.25441 11.7233 5.68226 11.7233H1.16159C0.589442 11.7233 0.125 11.2662 0.125 10.7049C0.125 10.1428 0.589442 9.68646 1.16159 9.68646ZM11.5108 13C12.8171 13 13.875 11.9599 13.875 10.6773C13.875 9.39394 12.8171 8.35376 11.5108 8.35376C10.2053 8.35376 9.14659 9.39394 9.14659 10.6773C9.14659 11.9599 10.2053 13 11.5108 13Z" fill="white"/>
</svg>
