<svg width="110" height="110" viewBox="0 0 110 110" fill="none" xmlns="http://www.w3.org/2000/svg">
<circle cx="55" cy="55" r="55" fill="#FAFAFB"/>
<path opacity="0.7" fill-rule="evenodd" clip-rule="evenodd" d="M61.1205 48.8421C61.1642 48.9186 61.2408 48.9732 61.3393 48.9732C63.966 48.9732 66.1111 51.116 66.1111 53.7397V60.2335C66.1111 62.8573 63.966 65 61.3393 65H48.994C46.3564 65 44.2222 62.8573 44.2222 60.2335V53.7397C44.2222 51.116 46.3564 48.9732 48.994 48.9732C49.0816 48.9732 49.1691 48.9295 49.202 48.8421L49.2676 48.7109C49.3053 48.6314 49.3441 48.5499 49.3834 48.4671C49.6634 47.8773 49.9731 47.2249 50.1651 46.8414C50.6685 45.8575 51.5222 45.3109 52.5838 45.3H57.7386C58.8002 45.3109 59.6648 45.8575 60.1683 46.8414C60.3407 47.1858 60.6033 47.7405 60.8564 48.2751C60.9086 48.3855 60.9605 48.4949 61.011 48.6015L61.1205 48.8421ZM60.3217 53.0401C60.3217 53.5867 60.7595 54.024 61.3067 54.024C61.8539 54.024 62.3026 53.5867 62.3026 53.0401C62.3026 52.4934 61.8539 52.0452 61.3067 52.0452C60.7595 52.0452 60.3217 52.4934 60.3217 53.0401ZM53.2729 54.7345C53.7873 54.2207 54.4549 53.9474 55.1663 53.9474C55.8777 53.9474 56.5453 54.2207 57.0488 54.7236C57.5522 55.2265 57.8258 55.8933 57.8258 56.6039C57.8149 58.0689 56.6329 59.2605 55.1663 59.2605C54.4549 59.2605 53.7873 58.9872 53.2839 58.4843C52.7804 57.9814 52.5068 57.3145 52.5068 56.6039V56.593C52.4959 55.9043 52.7695 55.2374 53.2729 54.7345ZM58.1982 59.6431C57.4211 60.4193 56.3486 60.9004 55.1666 60.9004C54.0174 60.9004 52.9449 60.4521 52.124 59.6431C51.3141 58.8232 50.8654 57.7519 50.8654 56.604C50.8545 55.467 51.3032 54.3956 52.1131 53.5757C52.9339 52.7558 54.0174 52.3076 55.1666 52.3076C56.3157 52.3076 57.3992 52.7558 58.2091 53.5648C59.019 54.3847 59.4678 55.467 59.4678 56.604C59.4568 57.7956 58.9752 58.867 58.1982 59.6431Z" fill="#030229"/>
</svg>
